<svg width="226" height="79" viewBox="0 0 226 79" fill="none" xmlns="http://www.w3.org/2000/svg">
<path d="M10.6 46V19.7H11.35L18 44.5H24.9L31.55 19.7H32.3V46H39.2V12H27.45L21.45 36.8L15.45 12H3.7V46H10.6ZM76.1199 46V40H61.0199V31.85H73.1199V25.95H61.0199V18H76.1199V12H54.1199V46H76.1199ZM108.655 39.9H96.2055V12H89.3055V46H108.655V39.9ZM132.989 46.6C130.389 46.6 128.189 46.25 126.389 45.55C124.623 44.85 123.173 43.8 122.039 42.4C120.939 40.9667 120.139 39.15 119.639 36.95C119.139 34.75 118.889 32.15 118.889 29.15C118.889 26.15 119.139 23.55 119.639 21.35C120.139 19.1167 120.939 17.2667 122.039 15.8C123.173 14.3 124.623 13.2 126.389 12.5C128.189 11.7667 130.389 11.4 132.989 11.4C135.589 11.4 137.773 11.7667 139.539 12.5C141.339 13.2 142.789 14.3 143.889 15.8C145.023 17.2667 145.839 19.1167 146.339 21.35C146.839 23.55 147.089 26.15 147.089 29.15C147.089 31.7167 146.889 34.0833 146.489 36.25C146.123 38.3833 145.406 40.2167 144.339 41.75C143.306 43.2833 141.873 44.4833 140.039 45.35C138.239 46.1833 135.889 46.6 132.989 46.6ZM127.489 37.95C128.456 39.7167 130.289 40.6 132.989 40.6C134.356 40.6 135.473 40.4 136.339 40C137.239 39.5667 137.956 38.9 138.489 38C139.056 37.0667 139.439 35.8833 139.639 34.45C139.873 32.9833 139.989 31.2167 139.989 29.15C139.989 27.0833 139.873 25.3167 139.639 23.85C139.406 22.3833 139.023 21.1667 138.489 20.2C137.956 19.2333 137.239 18.5333 136.339 18.1C135.439 17.6333 134.323 17.4 132.989 17.4C131.656 17.4 130.539 17.6333 129.639 18.1C128.739 18.5333 128.023 19.2333 127.489 20.2C126.956 21.1667 126.573 22.3833 126.339 23.85C126.106 25.3167 125.989 27.0833 125.989 29.15C125.989 33.25 126.489 36.1833 127.489 37.95ZM164.557 46L165.907 39.85H177.807L179.157 46H186.057L178.407 12H165.307L157.657 46H164.557ZM173.057 17.7L176.507 33.85H167.207L170.657 17.7H173.057ZM211.635 34.6H204.985V46H198.085V12H211.285C219.285 12 223.285 15.7333 223.285 23.2C223.285 27.6333 221.618 30.9 218.285 33L223.135 46H215.585L211.635 34.6ZM204.985 28.7H211.385C213.018 28.7 214.235 28.2 215.035 27.2C215.835 26.2 216.235 24.8833 216.235 23.25C216.235 21.6167 215.801 20.3167 214.935 19.35C214.101 18.3833 212.885 17.9 211.285 17.9H204.985V28.7Z" fill="white"/>
<path d="M13 67.998L13.078 69.714C11.2927 70.078 9.68933 70.26 8.268 70.26C6.84667 70.26 5.694 70.0693 4.81 69.688C3.94333 69.2893 3.276 68.674 2.808 67.842C2.32267 67.0273 1.98467 66.0913 1.794 65.034C1.62067 63.9593 1.534 62.6247 1.534 61.03C1.534 59.418 1.62067 58.0747 1.794 57C1.98467 55.9253 2.32267 54.972 2.808 54.14C3.276 53.308 3.93467 52.7013 4.784 52.32C5.65067 51.9387 6.786 51.748 8.19 51.748C8.88333 51.748 9.63733 51.8 10.452 51.904C11.2667 51.9907 12.142 52.1293 13.078 52.32L13 54.01C11.2667 53.698 9.70667 53.542 8.32 53.542C7.36667 53.542 6.58667 53.6807 5.98 53.958C5.37333 54.218 4.888 54.6513 4.524 55.258C4.17733 55.8473 3.93467 56.6187 3.796 57.572C3.67467 58.5253 3.614 59.6867 3.614 61.056C3.614 62.4253 3.666 63.526 3.77 64.358C3.89133 65.19 4.11667 65.9353 4.446 66.594C4.77533 67.27 5.252 67.7553 5.876 68.05C6.51733 68.3273 7.45333 68.466 8.684 68.466C9.89733 68.466 11.336 68.31 13 67.998ZM33.2266 61.134C33.2266 62.746 33.1052 64.124 32.8626 65.268C32.6372 66.412 32.2472 67.3567 31.6926 68.102C31.1379 68.8473 30.4099 69.3933 29.5086 69.74C28.6072 70.0867 27.4806 70.26 26.1286 70.26C24.7766 70.26 23.6412 70.078 22.7226 69.714C21.8212 69.35 21.0932 68.7953 20.5386 68.05C19.9839 67.3047 19.5852 66.3513 19.3426 65.19C19.1172 64.0287 19.0046 62.6593 19.0046 61.082C19.0046 59.5047 19.1259 58.1353 19.3686 56.974C19.6112 55.7953 20.0099 54.8247 20.5646 54.062C21.1192 53.282 21.8472 52.7013 22.7486 52.32C23.6672 51.9387 24.7852 51.748 26.1026 51.748C27.4372 51.748 28.5552 51.9387 29.4566 52.32C30.3579 52.684 31.0859 53.256 31.6406 54.036C32.2126 54.7987 32.6199 55.7693 32.8626 56.948C33.1052 58.1267 33.2266 59.522 33.2266 61.134ZM21.0586 61.082C21.0586 62.3993 21.1366 63.526 21.2926 64.462C21.4486 65.398 21.7172 66.1693 22.0986 66.776C22.4799 67.3653 22.9999 67.7987 23.6586 68.076C24.3172 68.3533 25.1406 68.492 26.1286 68.492C27.1166 68.492 27.9312 68.362 28.5726 68.102C29.2312 67.8247 29.7426 67.3913 30.1066 66.802C30.4879 66.2127 30.7566 65.45 30.9126 64.514C31.0686 63.578 31.1466 62.4513 31.1466 61.134C31.1466 59.7993 31.0686 58.6553 30.9126 57.702C30.7566 56.7487 30.4792 55.96 30.0806 55.336C29.6992 54.712 29.1792 54.2527 28.5206 53.958C27.8792 53.6633 27.0732 53.516 26.1026 53.516C25.1319 53.516 24.3172 53.6633 23.6586 53.958C23.0172 54.2527 22.4972 54.712 22.0986 55.336C21.7172 55.9427 21.4486 56.7227 21.2926 57.676C21.1366 58.6293 21.0586 59.7647 21.0586 61.082ZM42.2786 70V54.14H42.6426L47.8686 69.35H50.1046L55.3306 54.14H55.6946V70H57.6966V52.008H54.0826L48.9866 67.218L43.8906 52.008H40.2766V70H42.2786ZM72.0706 63.942H67.4946V70H65.4926V52.008H72.0706C74.0466 52.008 75.4939 52.4847 76.4126 53.438C77.3486 54.374 77.8166 55.83 77.8166 57.806C77.8166 61.8967 75.9012 63.942 72.0706 63.942ZM67.4946 53.776V62.174H72.0446C74.5232 62.174 75.7626 60.718 75.7626 57.806C75.7626 56.402 75.4679 55.3793 74.8786 54.738C74.2892 54.0967 73.3446 53.776 72.0446 53.776H67.4946ZM91.3827 63.11H86.2867V70H84.2847V52.008H90.9407C92.8647 52.008 94.3034 52.45 95.2567 53.334C96.21 54.2007 96.6867 55.5787 96.6867 57.468C96.6867 60.2587 95.586 62.0007 93.3847 62.694L96.8427 70H94.6327L91.3827 63.11ZM86.2867 61.342H90.9667C93.4107 61.342 94.6327 60.0767 94.6327 57.546C94.6327 55.0327 93.402 53.776 90.9407 53.776H86.2867V61.342ZM114.632 70V68.232H105.688V61.732H113.072V59.99H105.688V53.776H114.632V52.008H103.686V70H114.632ZM126.403 53.49C123.803 53.49 122.503 54.4693 122.503 56.428C122.503 56.9653 122.564 57.416 122.685 57.78C122.824 58.1267 123.058 58.43 123.387 58.69C123.734 58.9327 124.202 59.1407 124.791 59.314C125.381 59.4873 126.135 59.678 127.053 59.886C127.972 60.094 128.743 60.3193 129.367 60.562C130.009 60.8047 130.529 61.108 130.927 61.472C131.326 61.836 131.612 62.278 131.785 62.798C131.976 63.318 132.071 63.9507 132.071 64.696C132.071 68.388 130.156 70.234 126.325 70.234C125.684 70.234 124.965 70.1907 124.167 70.104C123.387 70.0347 122.521 69.9307 121.567 69.792L120.631 69.662L120.839 67.998C123.214 68.31 125.008 68.466 126.221 68.466C128.787 68.466 130.069 67.2613 130.069 64.852C130.069 64.3667 130 63.9593 129.861 63.63C129.74 63.2833 129.523 62.9973 129.211 62.772C128.917 62.5293 128.509 62.33 127.989 62.174C127.487 62.0007 126.845 61.836 126.065 61.68C125.06 61.472 124.202 61.238 123.491 60.978C122.781 60.718 122.2 60.3973 121.749 60.016C121.299 59.6173 120.969 59.1407 120.761 58.586C120.571 58.0313 120.475 57.3553 120.475 56.558C120.475 53.334 122.408 51.722 126.273 51.722C127.539 51.722 129.055 51.852 130.823 52.112L131.707 52.242L131.525 53.932C130.312 53.7933 129.281 53.6893 128.431 53.62C127.582 53.5333 126.906 53.49 126.403 53.49ZM143.875 53.49C141.275 53.49 139.975 54.4693 139.975 56.428C139.975 56.9653 140.036 57.416 140.157 57.78C140.296 58.1267 140.53 58.43 140.859 58.69C141.206 58.9327 141.674 59.1407 142.263 59.314C142.852 59.4873 143.606 59.678 144.525 59.886C145.444 60.094 146.215 60.3193 146.839 60.562C147.48 60.8047 148 61.108 148.399 61.472C148.798 61.836 149.084 62.278 149.257 62.798C149.448 63.318 149.543 63.9507 149.543 64.696C149.543 68.388 147.628 70.234 143.797 70.234C143.156 70.234 142.436 70.1907 141.639 70.104C140.859 70.0347 139.992 69.9307 139.039 69.792L138.103 69.662L138.311 67.998C140.686 68.31 142.48 68.466 143.693 68.466C146.258 68.466 147.541 67.2613 147.541 64.852C147.541 64.3667 147.472 63.9593 147.333 63.63C147.212 63.2833 146.995 62.9973 146.683 62.772C146.388 62.5293 145.981 62.33 145.461 62.174C144.958 62.0007 144.317 61.836 143.537 61.68C142.532 61.472 141.674 61.238 140.963 60.978C140.252 60.718 139.672 60.3973 139.221 60.016C138.77 59.6173 138.441 59.1407 138.233 58.586C138.042 58.0313 137.947 57.3553 137.947 56.558C137.947 53.334 139.88 51.722 143.745 51.722C145.01 51.722 146.527 51.852 148.295 52.112L149.179 52.242L148.997 53.932C147.784 53.7933 146.752 53.6893 145.903 53.62C145.054 53.5333 144.378 53.49 143.875 53.49ZM169.875 61.134C169.875 62.746 169.754 64.124 169.511 65.268C169.286 66.412 168.896 67.3567 168.341 68.102C167.786 68.8473 167.058 69.3933 166.157 69.74C165.256 70.0867 164.129 70.26 162.777 70.26C161.425 70.26 160.29 70.078 159.371 69.714C158.47 69.35 157.742 68.7953 157.187 68.05C156.632 67.3047 156.234 66.3513 155.991 65.19C155.766 64.0287 155.653 62.6593 155.653 61.082C155.653 59.5047 155.774 58.1353 156.017 56.974C156.26 55.7953 156.658 54.8247 157.213 54.062C157.768 53.282 158.496 52.7013 159.397 52.32C160.316 51.9387 161.434 51.748 162.751 51.748C164.086 51.748 165.204 51.9387 166.105 52.32C167.006 52.684 167.734 53.256 168.289 54.036C168.861 54.7987 169.268 55.7693 169.511 56.948C169.754 58.1267 169.875 59.522 169.875 61.134ZM157.707 61.082C157.707 62.3993 157.785 63.526 157.941 64.462C158.097 65.398 158.366 66.1693 158.747 66.776C159.128 67.3653 159.648 67.7987 160.307 68.076C160.966 68.3533 161.789 68.492 162.777 68.492C163.765 68.492 164.58 68.362 165.221 68.102C165.88 67.8247 166.391 67.3913 166.755 66.802C167.136 66.2127 167.405 65.45 167.561 64.514C167.717 63.578 167.795 62.4513 167.795 61.134C167.795 59.7993 167.717 58.6553 167.561 57.702C167.405 56.7487 167.128 55.96 166.729 55.336C166.348 54.712 165.828 54.2527 165.169 53.958C164.528 53.6633 163.722 53.516 162.751 53.516C161.78 53.516 160.966 53.6633 160.307 53.958C159.666 54.2527 159.146 54.712 158.747 55.336C158.366 55.9427 158.097 56.7227 157.941 57.676C157.785 58.6293 157.707 59.7647 157.707 61.082ZM184.023 63.11H178.927V70H176.925V52.008H183.581C185.505 52.008 186.944 52.45 187.897 53.334C188.85 54.2007 189.327 55.5787 189.327 57.468C189.327 60.2587 188.226 62.0007 186.025 62.694L189.483 70H187.273L184.023 63.11ZM178.927 61.342H183.607C186.051 61.342 187.273 60.0767 187.273 57.546C187.273 55.0327 186.042 53.776 183.581 53.776H178.927V61.342ZM207.272 70V68.232H198.328V61.732H205.712V59.99H198.328V53.776H207.272V52.008H196.326V70H207.272ZM219.044 53.49C216.444 53.49 215.144 54.4693 215.144 56.428C215.144 56.9653 215.204 57.416 215.326 57.78C215.464 58.1267 215.698 58.43 216.028 58.69C216.374 58.9327 216.842 59.1407 217.432 59.314C218.021 59.4873 218.775 59.678 219.694 59.886C220.612 60.094 221.384 60.3193 222.008 60.562C222.649 60.8047 223.169 61.108 223.568 61.472C223.966 61.836 224.252 62.278 224.426 62.798C224.616 63.318 224.712 63.9507 224.712 64.696C224.712 68.388 222.796 70.234 218.966 70.234C218.324 70.234 217.605 70.1907 216.808 70.104C216.028 70.0347 215.161 69.9307 214.208 69.792L213.272 69.662L213.48 67.998C215.854 68.31 217.648 68.466 218.862 68.466C221.427 68.466 222.71 67.2613 222.71 64.852C222.71 64.3667 222.64 63.9593 222.502 63.63C222.38 63.2833 222.164 62.9973 221.852 62.772C221.557 62.5293 221.15 62.33 220.63 62.174C220.127 62.0007 219.486 61.836 218.706 61.68C217.7 61.472 216.842 61.238 216.132 60.978C215.421 60.718 214.84 60.3973 214.39 60.016C213.939 59.6173 213.61 59.1407 213.402 58.586C213.211 58.0313 213.116 57.3553 213.116 56.558C213.116 53.334 215.048 51.722 218.914 51.722C220.179 51.722 221.696 51.852 223.464 52.112L224.348 52.242L224.166 53.932C222.952 53.7933 221.921 53.6893 221.072 53.62C220.222 53.5333 219.546 53.49 219.044 53.49Z" fill="white"/>
<rect x="1" y="74" width="93" height="1" fill="white"/>
<rect x="131" y="74" width="93" height="1" fill="white"/>
</svg>
