<svg width="31" height="30" viewBox="0 0 31 30" fill="none" xmlns="http://www.w3.org/2000/svg">
<path d="M21.9583 2.5H9.04165C5.47481 2.5 2.58331 5.29822 2.58331 8.75V21.25C2.58331 24.7018 5.47481 27.5 9.04165 27.5H21.9583C25.5252 27.5 28.4166 24.7018 28.4166 21.25V8.75C28.4166 5.29822 25.5252 2.5 21.9583 2.5Z" stroke="#717171" stroke-width="2" stroke-linecap="round" stroke-linejoin="round"/>
<path d="M20.6667 14.2125C20.8261 15.2528 20.6425 16.3153 20.1419 17.2488C19.6414 18.1823 18.8495 18.9393 17.8788 19.4121C16.9081 19.8849 15.808 20.0495 14.7351 19.8824C13.6621 19.7153 12.6709 19.2251 11.9025 18.4815C11.1341 17.7378 10.6275 16.7786 10.4548 15.7403C10.2822 14.702 10.4523 13.6374 10.9408 12.698C11.4294 11.7586 12.2117 10.9922 13.1763 10.5078C14.1409 10.0234 15.2388 9.84575 16.3138 10C17.4103 10.1574 18.4254 10.6518 19.2093 11.4104C19.9931 12.1689 20.5041 13.1514 20.6667 14.2125Z" stroke="#717171" stroke-width="2" stroke-linecap="round" stroke-linejoin="round"/>
<path d="M22.6042 8.125H22.6163" stroke="#717171" stroke-width="2" stroke-linecap="round" stroke-linejoin="round"/>
</svg>
