<svg width="29" height="30" viewBox="0 0 29 30" fill="none" xmlns="http://www.w3.org/2000/svg">
<path d="M25.375 12.5C25.375 21.25 14.5 28.75 14.5 28.75C14.5 28.75 3.625 21.25 3.625 12.5C3.625 9.51631 4.77076 6.65483 6.81021 4.54505C8.84967 2.43526 11.6158 1.25 14.5 1.25C17.3842 1.25 20.1503 2.43526 22.1898 4.54505C24.2292 6.65483 25.375 9.51631 25.375 12.5Z" stroke="#808080" stroke-width="2" stroke-linecap="round" stroke-linejoin="round"/>
<path d="M14.5 16.25C16.502 16.25 18.125 14.5711 18.125 12.5C18.125 10.4289 16.502 8.75 14.5 8.75C12.498 8.75 10.875 10.4289 10.875 12.5C10.875 14.5711 12.498 16.25 14.5 16.25Z" stroke="#808080" stroke-width="2" stroke-linecap="round" stroke-linejoin="round"/>
</svg>
